<svg width="683" height="1137" viewBox="0 0 683 1137" fill="none" xmlns="http://www.w3.org/2000/svg">
<g clip-path="url(#clip0_105_10)">
<path fill-rule="evenodd" clip-rule="evenodd" d="M682.766 264.31C681.202 261.182 679.638 258.836 678.856 257.272C656.957 217.391 635.841 177.51 613.942 137.629C611.596 133.719 611.596 130.591 613.16 126.681C635.841 86.0179 657.739 45.3549 680.42 3.9099C681.202 3.12792 681.984 1.56396 682.766 0C684.33 2.34594 685.113 3.9099 686.677 5.47387C708.575 45.3549 730.474 86.0179 752.372 125.899C754.719 129.809 755.501 132.937 753.155 136.847C730.474 177.51 708.575 218.955 686.677 259.618C685.113 261.182 684.33 261.964 682.766 264.31ZM683.548 11.7297C681.984 13.2937 680.42 14.8576 680.42 16.4216C660.086 53.1747 640.533 90.7098 620.199 127.463C617.853 131.373 618.635 134.501 620.199 137.629C640.533 174.382 660.086 211.135 679.638 247.888C680.42 249.452 681.984 251.016 682.766 252.58C683.548 251.016 684.33 250.234 685.113 249.452C705.447 211.917 725.781 174.382 746.116 136.847C748.462 132.937 747.68 129.809 745.334 126.681C731.256 101.658 717.96 76.6341 704.665 50.8288C697.626 38.3171 690.587 25.0234 683.548 11.7297Z" fill="url(#paint0_linear_105_10)"/>
<path fill-rule="evenodd" clip-rule="evenodd" d="M682.766 873.473C684.33 875.818 685.895 878.164 686.677 879.728C708.575 919.609 729.692 959.49 751.59 1000.15C753.937 1004.06 754.719 1007.19 752.372 1011.1C729.692 1052.55 707.793 1093.21 685.113 1134.65C684.33 1135.44 683.548 1136.22 682.766 1137.78C681.202 1136.22 680.42 1134.65 679.638 1133.09C657.739 1092.43 635.841 1051.76 613.16 1011.1C610.814 1007.19 610.814 1004.85 613.16 1000.94C635.841 960.272 657.739 918.827 679.638 878.164C681.202 876.601 681.202 875.036 682.766 873.473ZM682.766 1126.05C684.33 1122.92 685.895 1121.36 686.677 1119.01C706.229 1083.83 724.999 1047.85 744.551 1012.67C747.68 1007.19 746.898 1004.06 744.551 998.589C724.999 963.4 706.229 927.429 686.677 892.24C685.895 889.894 684.33 888.33 682.766 885.202C681.202 887.548 679.638 889.894 678.856 891.458C659.304 927.429 640.533 963.4 620.199 998.589C617.853 1003.28 617.853 1007.19 620.199 1011.88C639.751 1047.85 659.304 1083.83 678.856 1119.01C679.638 1121.36 681.202 1122.92 682.766 1126.05Z" fill="url(#paint1_linear_105_10)"/>
<path fill-rule="evenodd" clip-rule="evenodd" d="M304.234 218.173C305.798 221.301 307.362 223.646 308.926 225.992C330.043 265.091 351.159 304.191 372.276 343.29C375.404 347.981 375.404 351.891 372.276 357.365C351.159 396.464 330.043 435.563 308.926 474.662C307.362 477.008 306.58 479.354 304.234 482.482C302.67 480.136 301.887 478.572 301.105 477.79C279.207 437.127 257.308 397.246 235.41 356.583C233.063 352.673 232.281 349.545 234.628 345.635C257.308 304.972 279.207 263.528 301.105 222.865C301.887 221.301 302.67 220.519 304.234 218.173ZM304.234 470.752C305.798 469.188 305.798 468.406 306.58 467.624C326.914 430.089 347.249 392.554 367.583 355.019C369.929 351.109 369.147 348.763 367.583 345.635C347.249 308.882 327.697 272.129 308.144 235.376C307.362 233.812 305.798 233.03 305.016 231.466C304.234 233.03 303.452 233.812 302.67 234.594C282.335 271.347 262.783 308.882 242.448 345.635C240.102 350.327 240.884 353.455 243.231 357.365C262.783 392.554 281.553 428.525 301.105 463.715C301.105 466.061 301.887 467.624 304.234 470.752Z" fill="url(#paint2_linear_105_10)"/>
<path fill-rule="evenodd" clip-rule="evenodd" d="M608.468 744.446C604.557 744.446 602.211 744.446 599.865 744.446C554.503 742.882 509.924 742.1 464.563 740.536C459.87 740.536 455.96 738.972 453.613 734.28C429.368 695.181 405.124 656.082 381.661 616.201C380.879 614.637 380.097 613.855 379.315 611.509C381.661 611.509 383.225 610.727 384.789 610.727C430.933 612.291 477.076 613.073 524.002 614.637C528.694 614.637 531.04 616.201 533.387 620.111C557.632 659.992 581.876 699.091 606.121 738.19C606.121 740.536 606.903 742.1 608.468 744.446ZM597.518 738.19C595.954 735.844 595.954 734.28 594.39 732.716C572.491 697.527 550.593 662.338 529.476 626.367C527.13 622.457 524.002 620.893 520.091 620.893C478.64 620.111 437.971 618.547 396.521 617.765C394.174 617.765 392.61 617.765 389.482 617.765C390.264 620.111 390.264 620.893 391.046 621.675C413.727 658.428 435.625 694.399 458.306 731.152C460.652 734.28 462.998 735.062 466.127 735.062C507.578 735.844 549.811 737.408 591.261 738.19C592.826 738.19 595.172 738.19 597.518 738.19Z" fill="url(#paint3_linear_105_10)"/>
<path fill-rule="evenodd" clip-rule="evenodd" d="M229.153 612.291C217.422 631.059 207.254 648.262 196.305 665.466C182.227 688.143 168.15 711.603 154.072 734.28C151.726 738.19 148.597 740.536 143.905 740.536C97.7615 741.318 51.6181 742.882 4.69255 744.446C3.12837 744.446 2.34628 744.446 0 744.446C0.782092 742.1 1.56418 740.536 3.12837 738.972C27.3732 699.873 50.836 660.774 75.0808 621.675C77.4271 617.765 79.7734 616.201 84.4659 616.201C130.609 615.419 176.753 613.855 223.678 612.291C225.242 611.509 226.807 612.291 229.153 612.291ZM147.033 735.062C171.278 695.963 194.741 657.646 218.986 617.765C216.639 617.765 215.857 616.983 214.293 616.983C172.06 617.765 129.045 619.329 86.8122 620.111C82.1197 620.111 80.5555 622.457 78.2092 625.585C56.3106 660.774 35.1941 695.963 13.2956 731.152C12.5135 732.716 11.7314 735.062 10.1672 737.408C57.0927 737.408 102.454 736.626 147.033 735.062Z" fill="url(#paint4_linear_105_10)"/>
<path fill-rule="evenodd" clip-rule="evenodd" d="M0 393.336C50.836 394.9 100.89 396.464 150.944 397.246C176.753 439.473 203.344 482.482 229.935 525.491C226.807 525.491 224.46 526.273 222.114 525.491C176.753 523.927 131.391 523.145 85.248 521.581C81.3376 521.581 78.2092 520.799 75.0808 516.107C50.836 477.008 26.5911 436.345 1.56418 396.464C0.782092 395.682 0.782092 394.9 0 393.336ZM10.9493 399.592C11.7314 401.156 11.7314 401.938 12.5135 403.502C34.412 439.473 57.0927 475.444 78.9913 511.415C81.3376 515.325 84.4659 516.107 88.3764 516.107C129.827 516.889 170.496 518.453 211.947 519.235C214.293 519.235 215.857 519.235 218.986 519.235C217.422 516.107 216.639 514.543 215.075 512.197C193.959 477.79 172.842 444.165 151.726 409.758C148.597 404.284 144.687 401.938 138.43 401.938C106.365 401.156 73.5166 400.374 41.4509 399.592C31.2837 399.592 21.8986 399.592 10.9493 399.592Z" fill="url(#paint5_linear_105_10)"/>
<path fill-rule="evenodd" clip-rule="evenodd" d="M608.468 830.464C606.903 833.591 605.339 835.937 603.775 838.283C580.312 875.818 556.849 914.136 534.169 951.671C531.04 957.144 527.13 958.708 521.655 958.708C476.294 959.49 431.715 961.054 386.353 962.618C384.007 962.618 382.443 962.618 379.315 962.618C380.879 959.49 381.661 957.926 383.225 955.581C406.688 917.263 430.933 878.164 454.395 839.847C456.742 835.937 459.87 833.591 464.563 833.591C510.706 832.81 556.849 831.246 603.775 829.682C604.557 829.682 605.339 829.682 608.468 830.464ZM597.518 836.719C595.172 836.719 594.39 835.937 592.826 835.937C550.593 836.719 507.578 838.283 465.345 839.065C461.434 839.065 459.87 841.411 457.524 843.757C435.625 879.728 413.727 915.699 391.828 950.889C391.046 952.453 390.264 954.017 389.482 956.363C391.828 956.363 393.392 956.363 394.956 956.363C436.407 955.581 477.858 954.017 519.309 953.235C524.002 953.235 527.13 950.889 529.476 946.979C550.593 911.79 572.491 877.382 593.608 842.193C595.172 840.629 595.954 839.065 597.518 836.719Z" fill="url(#paint6_linear_105_10)"/>
<path fill-rule="evenodd" clip-rule="evenodd" d="M379.315 175.164C386.353 175.164 391.828 175.164 398.085 175.164C438.754 175.946 480.204 177.51 520.873 178.292C527.13 178.292 531.04 180.638 534.169 186.111C557.632 224.428 581.094 262.746 604.557 301.063C605.339 302.627 606.121 304.191 607.685 306.536C605.339 306.536 603.775 307.318 602.211 307.318C556.067 305.754 509.924 304.972 462.998 303.409C459.088 303.409 456.742 302.627 454.395 298.717C430.151 259.618 405.906 218.955 380.879 179.074C380.097 178.292 380.097 177.51 379.315 175.164ZM389.482 181.42C390.264 183.765 391.046 184.547 391.828 185.329C413.727 221.301 436.407 257.272 458.306 293.243C460.652 297.153 462.998 297.935 467.691 297.935C509.142 298.717 551.375 300.281 592.826 301.063C594.39 301.063 595.954 300.281 598.3 300.281C597.518 298.717 596.736 297.935 596.736 296.371C574.838 260.4 552.157 224.428 530.258 188.457C527.912 184.547 524.784 183.765 520.091 183.765C479.422 182.984 438.754 181.42 398.085 180.638C394.956 181.42 392.61 181.42 389.482 181.42Z" fill="url(#paint7_linear_105_10)"/>
<path fill-rule="evenodd" clip-rule="evenodd" d="M379.315 525.491C380.879 522.363 382.443 520.017 384.007 517.671C407.47 479.354 430.933 441.819 454.395 403.502C457.524 398.81 460.652 397.246 466.127 397.246C511.488 396.464 556.849 394.9 602.211 393.336C604.557 393.336 606.121 393.336 609.25 393.336C607.685 395.682 606.903 397.246 606.121 398.81C581.876 437.909 558.414 477.008 534.169 516.107C531.823 520.017 529.476 522.363 524.002 522.363C477.858 523.145 431.715 524.709 384.789 526.273C383.225 525.491 381.661 525.491 379.315 525.491ZM598.3 398.81C595.954 398.81 594.39 398.81 592.826 398.81C550.593 399.592 508.36 401.156 466.909 401.938C462.216 401.938 459.87 404.284 457.524 408.194C435.625 443.383 413.727 478.572 392.61 514.543C391.828 516.107 391.046 517.671 390.264 520.017C393.392 520.017 396.521 520.017 398.867 520.017C438.754 519.235 478.64 517.671 518.527 516.889C524.784 516.889 527.912 514.543 531.04 509.851C551.375 475.444 572.491 441.819 593.608 407.412C595.172 405.066 595.954 402.72 598.3 398.81Z" fill="url(#paint8_linear_105_10)"/>
<path fill-rule="evenodd" clip-rule="evenodd" d="M682.766 701.437C681.202 698.309 679.638 696.745 678.856 694.399C657.739 654.518 635.841 615.419 614.724 575.538C612.378 570.846 612.378 566.936 614.724 562.244C636.623 522.363 657.739 482.482 679.638 442.601C680.42 441.037 681.984 438.691 683.548 436.345C685.113 438.691 686.677 440.255 687.459 441.819C709.357 481.7 731.256 522.363 753.155 562.244C754.719 565.372 756.283 568.5 753.937 572.41C731.256 613.855 709.357 655.3 686.677 696.745C684.331 698.309 684.331 699.091 682.766 701.437ZM682.766 688.925C683.548 687.361 684.33 685.797 685.113 685.015C705.447 647.48 725.781 610.727 745.334 573.192C747.68 569.282 746.898 566.154 745.334 563.026C725.781 526.273 705.447 490.302 685.895 453.549C685.113 451.985 683.548 450.421 681.984 448.075C680.42 450.421 679.638 452.767 678.074 454.331C658.521 490.302 639.751 526.273 619.417 561.462C617.071 566.154 617.071 570.064 619.417 574.756C638.969 610.727 658.521 646.698 678.074 681.887C680.42 685.015 681.202 686.579 682.766 688.925Z" fill="url(#paint9_linear_105_10)"/>
<path fill-rule="evenodd" clip-rule="evenodd" d="M304.234 919.609C301.888 916.481 301.105 914.135 299.541 912.572C278.425 872.691 256.526 833.591 235.41 793.71C233.063 789.801 232.281 786.673 234.628 781.981C256.526 742.1 278.425 701.437 300.323 661.556C301.105 659.992 301.888 658.428 304.234 655.3C328.479 699.873 351.941 742.882 376.186 787.455C351.941 831.246 328.479 874.254 304.234 919.609ZM238.538 786.673C245.577 803.094 300.323 902.406 304.234 906.316C326.132 866.435 347.249 826.554 369.147 786.673C347.249 746.792 326.132 706.911 303.452 665.466C281.553 707.693 260.437 747.574 238.538 786.673Z" fill="url(#paint10_linear_105_10)"/>
</g>
<defs>
<linearGradient id="paint0_linear_105_10" x1="-1640.35" y1="1193.1" x2="2289.29" y2="-601.884" gradientUnits="userSpaceOnUse">
<stop stop-color="#B46D13"/>
<stop offset="0.1237" stop-color="#F3AD3B"/>
<stop offset="0.3065" stop-color="#F7DD80"/>
<stop offset="0.4462" stop-color="#FBDB62"/>
<stop offset="0.5538" stop-color="#F3AD3B"/>
<stop offset="0.6774" stop-color="#CC8F36"/>
<stop offset="0.7634" stop-color="#F3AD3B"/>
<stop offset="0.8333" stop-color="#F4D175"/>
<stop offset="0.9892" stop-color="#B9721A"/>
</linearGradient>
<linearGradient id="paint1_linear_105_10" x1="-1310.39" y1="1915.58" x2="2619.33" y2="120.566" gradientUnits="userSpaceOnUse">
<stop stop-color="#B46D13"/>
<stop offset="0.1237" stop-color="#F3AD3B"/>
<stop offset="0.3065" stop-color="#F7DD80"/>
<stop offset="0.4462" stop-color="#FBDB62"/>
<stop offset="0.5538" stop-color="#F3AD3B"/>
<stop offset="0.6774" stop-color="#CC8F36"/>
<stop offset="0.7634" stop-color="#F3AD3B"/>
<stop offset="0.8333" stop-color="#F4D175"/>
<stop offset="0.9892" stop-color="#B9721A"/>
</linearGradient>
<linearGradient id="paint2_linear_105_10" x1="-1623.33" y1="1230.53" x2="2306.44" y2="-564.507" gradientUnits="userSpaceOnUse">
<stop stop-color="#B46D13"/>
<stop offset="0.1237" stop-color="#F3AD3B"/>
<stop offset="0.3065" stop-color="#F7DD80"/>
<stop offset="0.4462" stop-color="#FBDB62"/>
<stop offset="0.5538" stop-color="#F3AD3B"/>
<stop offset="0.6774" stop-color="#CC8F36"/>
<stop offset="0.7634" stop-color="#F3AD3B"/>
<stop offset="0.8333" stop-color="#F4D175"/>
<stop offset="0.9892" stop-color="#B9721A"/>
</linearGradient>
<linearGradient id="paint3_linear_105_10" x1="-1466.61" y1="1573.58" x2="2463.12" y2="-221.444" gradientUnits="userSpaceOnUse">
<stop stop-color="#B46D13"/>
<stop offset="0.1237" stop-color="#F3AD3B"/>
<stop offset="0.3065" stop-color="#F7DD80"/>
<stop offset="0.4462" stop-color="#FBDB62"/>
<stop offset="0.5538" stop-color="#F3AD3B"/>
<stop offset="0.6774" stop-color="#CC8F36"/>
<stop offset="0.7634" stop-color="#F3AD3B"/>
<stop offset="0.8333" stop-color="#F4D175"/>
<stop offset="0.9892" stop-color="#B9721A"/>
</linearGradient>
<linearGradient id="paint4_linear_105_10" x1="-1532.08" y1="1430.12" x2="2397.55" y2="-364.855" gradientUnits="userSpaceOnUse">
<stop stop-color="#B46D13"/>
<stop offset="0.1237" stop-color="#F3AD3B"/>
<stop offset="0.3065" stop-color="#F7DD80"/>
<stop offset="0.4462" stop-color="#FBDB62"/>
<stop offset="0.5538" stop-color="#F3AD3B"/>
<stop offset="0.6774" stop-color="#CC8F36"/>
<stop offset="0.7634" stop-color="#F3AD3B"/>
<stop offset="0.8333" stop-color="#F4D175"/>
<stop offset="0.9892" stop-color="#B9721A"/>
</linearGradient>
<linearGradient id="paint5_linear_105_10" x1="-1614.84" y1="1248.99" x2="2314.84" y2="-546.005" gradientUnits="userSpaceOnUse">
<stop stop-color="#B46D13"/>
<stop offset="0.1237" stop-color="#F3AD3B"/>
<stop offset="0.3065" stop-color="#F7DD80"/>
<stop offset="0.4462" stop-color="#FBDB62"/>
<stop offset="0.5538" stop-color="#F3AD3B"/>
<stop offset="0.6774" stop-color="#CC8F36"/>
<stop offset="0.7634" stop-color="#F3AD3B"/>
<stop offset="0.8333" stop-color="#F4D175"/>
<stop offset="0.9892" stop-color="#B9721A"/>
</linearGradient>
<linearGradient id="paint6_linear_105_10" x1="-1384.35" y1="1753.53" x2="2545.27" y2="-41.4403" gradientUnits="userSpaceOnUse">
<stop stop-color="#B46D13"/>
<stop offset="0.1237" stop-color="#F3AD3B"/>
<stop offset="0.3065" stop-color="#F7DD80"/>
<stop offset="0.4462" stop-color="#FBDB62"/>
<stop offset="0.5538" stop-color="#F3AD3B"/>
<stop offset="0.6774" stop-color="#CC8F36"/>
<stop offset="0.7634" stop-color="#F3AD3B"/>
<stop offset="0.8333" stop-color="#F4D175"/>
<stop offset="0.9892" stop-color="#B9721A"/>
</linearGradient>
<linearGradient id="paint7_linear_105_10" x1="-1631.83" y1="1211.73" x2="2297.8" y2="-583.245" gradientUnits="userSpaceOnUse">
<stop stop-color="#B46D13"/>
<stop offset="0.1237" stop-color="#F3AD3B"/>
<stop offset="0.3065" stop-color="#F7DD80"/>
<stop offset="0.4462" stop-color="#FBDB62"/>
<stop offset="0.5538" stop-color="#F3AD3B"/>
<stop offset="0.6774" stop-color="#CC8F36"/>
<stop offset="0.7634" stop-color="#F3AD3B"/>
<stop offset="0.8333" stop-color="#F4D175"/>
<stop offset="0.9892" stop-color="#B9721A"/>
</linearGradient>
<linearGradient id="paint8_linear_105_10" x1="-1549.32" y1="1392.44" x2="2380.34" y2="-402.548" gradientUnits="userSpaceOnUse">
<stop stop-color="#B46D13"/>
<stop offset="0.1237" stop-color="#F3AD3B"/>
<stop offset="0.3065" stop-color="#F7DD80"/>
<stop offset="0.4462" stop-color="#FBDB62"/>
<stop offset="0.5538" stop-color="#F3AD3B"/>
<stop offset="0.6774" stop-color="#CC8F36"/>
<stop offset="0.7634" stop-color="#F3AD3B"/>
<stop offset="0.8333" stop-color="#F4D175"/>
<stop offset="0.9892" stop-color="#B9721A"/>
</linearGradient>
<linearGradient id="paint9_linear_105_10" x1="-1475.31" y1="1554.4" x2="2454.31" y2="-240.569" gradientUnits="userSpaceOnUse">
<stop stop-color="#B46D13"/>
<stop offset="0.1237" stop-color="#F3AD3B"/>
<stop offset="0.3065" stop-color="#F7DD80"/>
<stop offset="0.4462" stop-color="#FBDB62"/>
<stop offset="0.5538" stop-color="#F3AD3B"/>
<stop offset="0.6774" stop-color="#CC8F36"/>
<stop offset="0.7634" stop-color="#F3AD3B"/>
<stop offset="0.8333" stop-color="#F4D175"/>
<stop offset="0.9892" stop-color="#B9721A"/>
</linearGradient>
<linearGradient id="paint10_linear_105_10" x1="-1458.13" y1="1592" x2="2471.47" y2="-202.965" gradientUnits="userSpaceOnUse">
<stop stop-color="#B46D13"/>
<stop offset="0.1237" stop-color="#F3AD3B"/>
<stop offset="0.3065" stop-color="#F7DD80"/>
<stop offset="0.4462" stop-color="#FBDB62"/>
<stop offset="0.5538" stop-color="#F3AD3B"/>
<stop offset="0.6774" stop-color="#CC8F36"/>
<stop offset="0.7634" stop-color="#F3AD3B"/>
<stop offset="0.8333" stop-color="#F4D175"/>
<stop offset="0.9892" stop-color="#B9721A"/>
</linearGradient>
<clipPath id="clip0_105_10">
<rect width="987" height="1137" fill="white"/>
</clipPath>
</defs>
</svg>
