<svg width="510" height="24" viewBox="0 0 510 24" fill="none" xmlns="http://www.w3.org/2000/svg">
<line y1="12" x2="487" y2="12" stroke="#FFB41D" stroke-width="2"/>
<g clip-path="url(#clip0_35_10)">
<path fill-rule="evenodd" clip-rule="evenodd" d="M464 11.9337C464.544 11.6685 464.817 11.4034 465.225 11.2708C472.166 7.55805 478.97 3.97794 485.911 0.397829C486.728 3.87614e-05 487.408 3.87911e-05 488.225 0.397829C495.03 3.97794 501.97 7.69065 508.911 11.2708C509.183 11.536 509.592 11.6685 510 11.9337C509.592 12.1989 509.32 12.4641 509.047 12.5967C501.97 16.3094 495.03 19.8895 487.953 23.6022C487.408 23.8674 486.864 24.1326 486.183 23.7348C478.97 19.8895 471.757 16.1768 464.544 12.3315C464.408 12.1989 464.272 12.1989 464 11.9337Z" fill="#FFB41D"/>
</g>
<defs>
<clipPath id="clip0_35_10">
<rect width="24" height="46" fill="white" transform="translate(510) rotate(90)"/>
</clipPath>
</defs>
</svg>
