<svg width="680" height="24" viewBox="0 0 680 24" fill="none" xmlns="http://www.w3.org/2000/svg">
<line y1="12" x2="657" y2="12" stroke="#FFB41D" stroke-width="2"/>
<g clip-path="url(#clip0_138_477)">
<path fill-rule="evenodd" clip-rule="evenodd" d="M634 11.9337C634.544 11.6685 634.817 11.4033 635.225 11.2707C642.166 7.55799 648.97 3.97788 655.911 0.397768C656.728 -2.22738e-05 657.408 -2.2244e-05 658.225 0.397768C665.03 3.97788 671.97 7.69059 678.911 11.2707C679.183 11.5359 679.592 11.6685 680 11.9337C679.592 12.1989 679.32 12.4641 679.047 12.5967C671.97 16.3094 665.03 19.8895 657.953 23.6022C657.408 23.8674 656.864 24.1326 656.183 23.7348C648.97 19.8895 641.757 16.1768 634.544 12.3315C634.408 12.1989 634.272 12.1989 634 11.9337Z" fill="#FFB41D"/>
</g>
<defs>
<clipPath id="clip0_138_477">
<rect width="24" height="46" fill="white" transform="translate(680) rotate(90)"/>
</clipPath>
</defs>
</svg>
