<svg width="315" height="24" viewBox="0 0 315 24" fill="none" xmlns="http://www.w3.org/2000/svg">
<line y1="12" x2="292" y2="12" stroke="#FFB41D" stroke-width="2"/>
<g clip-path="url(#clip0_9_2)">
<path fill-rule="evenodd" clip-rule="evenodd" d="M269 11.9337C269.544 11.6685 269.817 11.4033 270.225 11.2707C277.166 7.55802 283.97 3.97791 290.911 0.397798C291.728 8.24433e-06 292.408 8.27408e-06 293.225 0.397798C300.03 3.97791 306.97 7.69062 313.911 11.2707C314.183 11.5359 314.592 11.6685 315 11.9337C314.592 12.1989 314.32 12.4641 314.047 12.5967C306.97 16.3094 300.03 19.8895 292.953 23.6022C292.408 23.8674 291.864 24.1326 291.183 23.7348C283.97 19.8895 276.757 16.1768 269.544 12.3315C269.408 12.1989 269.272 12.1989 269 11.9337Z" fill="#FFB41D"/>
</g>
<defs>
<clipPath id="clip0_9_2">
<rect width="24" height="46" fill="white" transform="translate(315) rotate(90)"/>
</clipPath>
</defs>
</svg>
